<?xml version="1.0" encoding="UTF-8"?>
<svg id="svg10" xmlns="http://www.w3.org/2000/svg" version="1.1" xmlns:cc="http://creativecommons.org/ns#" xmlns:dc="http://purl.org/dc/elements/1.1/" xmlns:inkscape="http://www.inkscape.org/namespaces/inkscape" xmlns:rdf="http://www.w3.org/1999/02/22-rdf-syntax-ns#" xmlns:sodipodi="http://sodipodi.sourceforge.net/DTD/sodipodi-0.dtd" xmlns:svg="http://www.w3.org/2000/svg" xmlns:xlink="http://www.w3.org/1999/xlink" viewBox="0 0 250 82.3">
  <!-- Generator: Adobe Illustrator 29.3.1, SVG Export Plug-In . SVG Version: 2.1.0 Build 151)  -->
  <defs>
    <style>
      .st0 {
        fill: #fff;
      }

      .st1 {
        fill: url(#Degradado_sin_nombre);
      }
    </style>
    <linearGradient id="Degradado_sin_nombre" data-name="Degradado sin nombre" x1="2784.4" y1="-2268.3" x2="2783.5" y2="-2065.1" gradientTransform="translate(-391.1 -302.4) scale(.2 -.2)" gradientUnits="userSpaceOnUse">
      <stop offset="0" stop-color="#35b4e8"/>
      <stop offset="1" stop-color="#f8d107"/>
    </linearGradient>
  </defs>
  <sodipodi:namedview id="namedview12" bordercolor="#666666" borderopacity="1" gridtolerance="10" guidetolerance="10" inkscape:current-layer="g891" inkscape:cx="289.5074" inkscape:cy="103.06909" inkscape:pageopacity="0" inkscape:pageshadow="2" inkscape:window-height="705" inkscape:window-maximized="1" inkscape:window-width="1366" inkscape:window-x="-8" inkscape:window-y="-8" inkscape:zoom="0.70710678" objecttolerance="10" pagecolor="#ffffff" showgrid="false"/>
  <g id="g18" inkscape:groupmode="layer" inkscape:label="Image">
    <g id="g896">
      <g id="g891">
        <g id="g900">
          <path id="path22" class="st0" d="M168,76c-4.5-.5-7.9-4.2-8.4-9.1,0-.9,0-2.4.1-3.3.5-2.7,2-5.1,4.1-6.5,1.8-1.3,4.1-1.9,6.3-1.6,1.3.1,2.3.4,3.4.9.9.4,1.5.9,2.3,1.6.7.7,1.2,1.4,1.7,2.3.3.5.6,1.5.6,1.6s-.8,0-2,0h-2l-.2-.3c-.7-1.3-1.9-2.2-3.2-2.6-3.3-.9-6.4,1.4-7.2,5.2-.1.7-.1,2.2,0,2.9.4,2,1.4,3.6,2.8,4.6.5.4.9.5,1.5.7.4.1.5.1,1.3.1.7,0,.9,0,1.3-.1,1.5-.4,2.7-1.3,3.5-2.7l.2-.3h4.1v.4c-.4.9-1,2-1.6,2.8-1.8,2.2-4.4,3.5-7.4,3.4-.3,0-.8,0-1,0h0ZM191,76c-1.3-.2-2.3-.7-3.2-1.6-.9-.9-1.4-2.1-1.6-3.5,0-.5,0-1.3,0-5.2v-4.7h3.8v4.5c0,4.8,0,4.8.3,5.5.4,1,1.3,1.5,2.4,1.5,1.4,0,2.5-.8,2.8-2.1.1-.4.1-.6.1-4.9v-4.5h3.8v14.7h-3.6v-1.3l-.3.3c-.6.6-1.4,1-2.2,1.2-.5.1-1.6.2-2.1,0h0ZM206.9,75.9c-1-.2-2-.6-2.8-1.2-3-2.2-3.9-6.6-2.1-10.1.9-1.7,2.4-3,4.1-3.6.7-.2,1.4-.3,2.2-.3,1.5,0,2.6.5,3.7,1.4l.3.3v-7.9h3.8v21.3h-3.5v-1.6l-.3.2c-.8.7-1.7,1.2-2.6,1.4-.5.1-.7.1-1.5.2-.7,0-1.1,0-1.3,0h0ZM209.5,72.4c.6-.1,1.2-.5,1.7-1,.5-.5.8-1,1.1-1.7.1-.4.2-.6.2-1.2,0-1-.1-1.8-.6-2.6-.3-.5-1-1.2-1.5-1.4-1-.5-2.2-.5-3.3,0-.5.3-1.3,1-1.6,1.6-1,1.9-.7,4.1.8,5.4.9.8,2.1,1.1,3.3.9h0ZM223.8,75.9c-1.8-.3-3.5-1.5-4.5-3.1-1.5-2.3-1.7-5.6-.4-8.1,1.1-2.1,2.9-3.6,5.2-3.9.6-.1,1.8,0,2.4,0,1.1.2,2.1.7,2.8,1.4l.3.3v-1.5h3.6v14.7h-3.6v-1.5l-.2.2c-.8.7-1.7,1.2-2.6,1.4-.5.1-.7.1-1.5.2-.7,0-1.1,0-1.4,0h0ZM226.4,72.4c1.1-.3,2.1-1.2,2.6-2.4.2-.6.3-1.2.3-1.9,0-.8-.1-1.1-.5-1.8-.2-.5-.3-.6-.8-1-.3-.3-.6-.5-.9-.7-2.1-1.1-4.6.1-5.2,2.6-.3,1.2-.1,2.6.5,3.6.9,1.3,2.4,2,3.9,1.6h0ZM240.6,75.9c-.7-.1-1-.2-1.6-.6-2-1-3.4-2.9-3.9-5.4-.1-.7-.1-2.5,0-3.3.2-.8.4-1.3.7-2,1-2,2.8-3.5,4.9-3.9.6-.1,2,0,2.6,0,.9.2,1.8.6,2.6,1.2l.4.3v-3.9s0-3.9,0-3.9h3.8v21.3h-3.6v-1.6l-.3.3c-.7.6-1.6,1.1-2.6,1.4-.6.2-2.2.2-2.9,0h0ZM243.3,72.4c1.9-.5,3.2-2.6,2.9-4.6-.1-1-.6-1.9-1.2-2.5-.5-.5-.8-.7-1.4-.9-.6-.2-1.5-.2-2.1,0-1.3.4-2.4,1.6-2.7,3.1-.1.5,0,1.6,0,2.1.2.7.6,1.4,1.1,1.9.9.9,2.1,1.2,3.3.9h0ZM179.8,68.3v-7.4h3.8v14.7h-3.8v-7.4ZM179.8,57.6v-1.7h3.8v3.5h-3.8v-1.7ZM197.8,51.5c-1.6-.3-3.2-1.2-4.3-2.4-.9-1-1.5-2.2-1.8-3.5-.2-.7-.2-2.3,0-3.1.5-2.5,2.2-4.6,4.6-5.6,2.3-1,5.2-.7,7.3.8.8.6,1.7,1.7,2.1,2.6.4.9.7,1.8.8,2.8,0,.5,0,1.8,0,2.1v.2h-5.5c-3.9,0-5.5,0-5.5,0s0,.2.2.5c.4,1.1,1.2,1.8,2.3,2.2.4.1.5.2,1.2.2s.8,0,1.1-.1c.8-.3,1.5-.7,1.9-1.3l.2-.3h2c1.1,0,2,0,2,0,0,0-.3.9-.5,1.3-.6,1.3-1.7,2.3-3,3-.6.3-1,.4-1.7.6-.7.1-2.5.2-3.1,0h0ZM202.6,42.2c0-.3-.4-.9-.6-1.2-.5-.6-1.1-1-2-1.2-.4,0-.6-.1-1.1,0-1,0-1.6.3-2.4,1-.4.4-.7.9-1,1.4,0,.2-.1.3-.1.4s1.6,0,3.6,0h3.6v-.2ZM213.3,51.6c0,0-.4,0-.6-.1-2-.3-3.7-1.5-4.6-3.1-.2-.4-.5-1.2-.5-1.6v-.3s1.8,0,1.8,0h1.9l.2.3c.3.6,1.1,1,1.9,1.3.5.1,1.8.1,2.3,0,.5-.1,1-.4,1.2-.6.1-.2.1-.2.1-.6s0-.4-.1-.6c-.3-.4-1.1-.7-3-1-2-.3-2.9-.6-3.8-1-1.2-.6-2-1.5-2.2-2.5-.1-.5,0-1.4,0-1.9.5-1.8,2.2-3.2,4.5-3.6.8-.1,2.3-.1,3,0,2,.4,3.5,1.3,4.3,2.8.2.4.5,1,.5,1.4v.2s-1.9,0-1.9,0h-1.9l-.2-.3c-.2-.3-.6-.6-1.1-.8-.5-.2-1.8-.2-2.4,0-.8.2-1.3.6-1.3,1.1s.6.9,3.1,1.3c3,.5,4.2,1,5.1,1.9.7.8,1,1.6.9,2.8,0,1-.3,1.7-.9,2.5-.6.8-1.6,1.4-2.7,1.8-.8.3-1.4.4-2.6.4-.6,0-1.2,0-1.3,0h0ZM150.7,51.3s1.5-4.2,3.3-9.4c1.8-5.1,3.3-9.6,3.4-9.8l.2-.5h2.4c2.2,0,2.4,0,2.4,0,.1.3,6.8,19.5,6.8,19.5s-.8,0-2,0h-2l-.7-2-.7-2h-7.9l-.2.6c0,.3-.4,1.2-.7,2l-.5,1.4h-2c-1.1,0-2,0-2,0h0ZM162.6,43.8c0,0-2.7-8-2.7-8,0,0-2.7,7.9-2.7,8s.7,0,2.7,0,2.7,0,2.7,0ZM170.7,44v-7.3h3.8v14.6h-3.8v-7.3ZM177.4,44v-7.3h3.6v1.4l.3-.3c.6-.6,1.4-1,2-1.2,1.1-.3,2.6-.2,3.7.3,2.1.9,3.4,3.2,3.4,6.1v.6h-3.7v-.7c0-1.1-.3-1.7-.8-2.2-.5-.5-1-.7-1.9-.7-.6,0-1,0-1.4.3-.3.2-.9.8-1.1,1.1-.3.6-.3.5-.3,5.4v4.5h-3.8v-7.3ZM170.7,33.4v-1.7h3.8v3.5h-3.8v-1.7ZM159.6,28.6c-.8-.1-1.3-.3-1.9-.5-1.6-.8-2.5-2.1-3-4.1-.1-.5-.1-.6-.1-5.4v-4.9s1.8,0,1.8,0h1.9v4.3c0,4.3,0,4.8.2,5.4.2.8.8,1.4,1.6,1.6.2,0,.4,0,1,0,.7,0,1,0,1.5-.4.3-.2.8-.8,1-1.1q.3-.7.3-5.5v-4.4h3.7v14.6h-3.5v-1.3l-.3.3c-.7.6-1.6,1.1-2.5,1.2-.4,0-1.3,0-1.7,0h0ZM176.1,28.6c-1.6-.2-3.1-1-4.2-2.1-1.1-1.1-1.8-2.5-2.1-4-.1-.7-.1-2.3,0-3.1.6-3,2.9-5.3,5.9-6,.7-.2,2.2-.1,3,0,.7.2,1.1.3,1.7.6,2.2,1,3.7,3.2,4,5.9,0,.6.1,1.9,0,2.3v.2h-11,0c.4,1.4,1.3,2.3,2.4,2.7.6.2,1.2.2,1.7.2.5,0,1.1-.3,1.5-.5.3-.2.8-.6,1-.9l.2-.3h4v.2c-.4,1.2-1.2,2.3-2.1,3.1-.9.8-2,1.3-3.2,1.6-.7.1-2.2.2-2.8.1h0ZM180.7,19.3c0,0-.1-.4-.3-.6-.3-.6-.9-1.2-1.6-1.6-.7-.3-1-.4-1.8-.4-.5,0-.7,0-1.1.1-.7.2-1.4.7-1.8,1.3-.2.3-.6.9-.6,1.2h0c0,.1,3.6.1,3.6.1h3.6v-.2ZM207.8,28.6c-3-.4-5.5-2.7-6.2-5.9-.1-.5-.1-.7-.1-1.7,0-.9,0-1.2,0-1.6.3-1.6,1-2.9,2.1-4,1.5-1.4,3.3-2.2,5.3-2.1,1.5,0,2.6.4,3.8,1.2.6.4,1.5,1.3,2,1.9.6.9,1.1,2,1.3,3.1.1.7.1,2.1,0,2.8-.5,3-2.8,5.5-5.8,6.1-.5.1-1.9.2-2.5,0h0ZM209.9,25.1c.5-.2.9-.4,1.4-.9.5-.5.8-1,1-1.8.1-.4.1-.6.1-1.3,0-.7,0-.9-.1-1.3-.4-1.5-1.4-2.6-2.7-2.9-1.2-.3-2.5.1-3.4,1.1-.3.3-.7,1.2-.8,1.7-.2,1-.2,2,0,2.9.2.7.5,1.1,1,1.6.5.5.9.7,1.5.9.5.1,1.4.1,1.9,0h0ZM223,28.6c-2-.2-3.8-1.2-4.8-2.6-.3-.5-.7-1.2-.8-1.8-.2-.7-.4-.7,1.8-.7h1.9v.2c.3.5,1,1,1.7,1.3,1.3.5,3.3.2,3.9-.5.2-.3.2-.8,0-1.1-.2-.4-1.1-.7-3.1-1-2.8-.5-4-.9-5-1.9-.7-.7-.9-1.4-.9-2.4,0-2,1.2-3.5,3.4-4.3.8-.3,1.5-.4,2.8-.4,1,0,1.2,0,1.7.1,2.3.5,4,1.9,4.5,3.8.2.7.4.6-1.8.6h-1.9v-.2c-.3-.4-.9-.8-1.5-.9-.4-.1-1.7,0-2.1,0-.9.2-1.4.8-1.2,1.2.2.5.7.7,3,1.1,2.2.4,3.2.7,4,1.1,1.1.6,1.8,1.4,2,2.4,0,.5.1,1.4,0,1.9-.4,2.1-2.4,3.6-5.1,4-.6,0-1.7,0-2.4,0h0ZM137.1,18.5v-9.9h5.1q5.5,0,6.5.3c1.8.5,2.9,1.8,3.3,3.6.1.6.2,2,0,2.5-.2,1-.9,2.1-1.6,2.7-.2.1-.2.1,0,.2,1,.6,1.5,1.1,2,2,.4.8.6,1.6.6,2.7,0,1.7-.5,3.1-1.6,4.1-.9.8-1.8,1.3-3.1,1.5-.4,0-1,0-5.7.1h-5.3s0-9.8,0-9.8ZM147,24.8c1.2-.2,1.9-.9,2.1-2,0-.5,0-1-.2-1.5-.2-.4-.6-.9-1-1.1q-.7-.4-4-.4h-3v2.5c0,1.4,0,2.5,0,2.5,0,.1,5.4,0,6.1,0h0ZM147,16.3c.9-.3,1.5-1.1,1.5-2.1s-.5-1.6-1.3-2c-.3-.1-.3-.1-3.3-.1h-3s0,2.1,0,2.1v2.2h2.9c2.8,0,2.9,0,3.2-.1ZM186.5,21v-7.3h3.5v1.4l.4-.4c.7-.6,1.3-1,2.1-1.2.4-.1.5-.1,1.3-.1.8,0,1,0,1.4.1,2.1.6,3.5,2.1,4,4.5.1.5.1.6.1,5.4v4.9s-1.8,0-1.8,0h-1.9v-4.3c0-4.6,0-4.9-.3-5.6-.4-1.1-1.4-1.6-2.7-1.5-.8,0-1.4.3-1.9.8-.3.3-.5.6-.7,1.1,0,.3-.1.6-.1,4.9v4.6h-3.7v-7.3h0Z" sodipodi:nodetypes="cssssssssscssscsscsscccssscccssscccccssscccccccccssccsssssscccccccccccsssscssssscsscccssssscccccccccccssscssssssssssssssssscccccccccccsssssssssssssccccccccccccccccccssssssssscssssssscssssssssssssssscssssscccsssssssssssssscccssssssssssssssscsssscccccsscsscsssccccccccccccccccsssscccssssssccccccccccccccssscccssssssccccccccccssccssssssssscccssssscccssssssssssscccscscsssssscsccsssssssssssssssscsssssssssssscssssssscsssccsssssssssssccssssscsssssssscccsssccccccsssssscccssssssccccc"/>
          <path id="path22-6" class="st1" d="M74.4,82.3c-2.7-.2-5.2-1.4-7.1-3.3-.5-.5-1-1.1-1.4-1.7-.2-.3-.3-.5-.3-.5,0,0-.6.3-1.3.6-3.7,1.8-8.2,3.2-12.7,3.8-1,.1-1.7.2-3.5.4-.9,0-36.5.1-37.5,0-2.7-.2-5.1-1.3-7-3.2-1-1-1.7-2-2.3-3.2-.5-1-.8-1.8-1-3.1,0-.4-.1-.8-.1-1.2v-29C0,20.9,0,12,0,11.6c.2-2.3,1.1-4.4,2.5-6.2.4-.6,1.4-1.5,2-1.9,1.5-1.1,3.1-1.8,5.1-2.2h.6c0-.1,16.3-.1,16.3-.1,16,0,17.6,0,19.4.2,4.4.4,8.7,1.5,12.7,3.2.9.4,2.7,1.3,3.3,1.7,4.9,2.8,8.4,7.8,9.5,13.3.2,1.2.3,1.9.3,3.3,0,1.5,0,2.3-.2,3.5-.5,3.4-1.9,6.6-4.1,9.4-.9,1.1-2.5,2.7-3.5,3.4-.1.1-.2.2-.2.2,0,0,.4.2.8.4,3.7,1.7,7,4.5,9.1,8.1.3.6.4.6.4.5,0,0,4.8-9.2,10.5-20.2,5.7-11.1,10.6-20.4,10.7-20.7.7-1.1,1.7-2.4,2.7-3.3,2.4-2.2,5.1-3.4,8.4-3.9.9-.1,3.2-.1,4.1,0,1.8.3,3.3.7,4.8,1.5,2.8,1.4,5.1,3.6,6.6,6.4.3.6,29.4,56.7,30,57.8.6,1.1.9,2.4,1.1,3.8,0,.7,0,2.4,0,3.1-.4,2.6-1.8,5.1-3.8,6.8-4.3,3.7-10.7,3.7-15.1,0-1.2-1.1-2-2.1-2.9-3.8-.3-.5-.6-1.1-.8-1.3-.9-1.2-2.2-2.1-3.7-2.4-.4,0-2.1,0-18.4,0h-17.9s-.5.2-.5.2c-.6.2-1.4.5-1.8.8-.5.4-1.3,1.1-1.6,1.6-.2.3-.5.8-.6,1.1-1.8,3.7-5.3,6.2-9.3,6.6-.6,0-1.6,0-2,0h0Z" sodipodi:nodetypes="ssssssssssccccssscssssssssssssssssssssssssssssscsssssss"/>
        </g>
      </g>
    </g>
  </g>
</svg>